
        <svg xmlns="http://www.w3.org/2000/svg" xmlns:xlink="http://www.w3.org/1999/xlink" version="1.1" width="3176.3988290789193" 
        height="662.2012043622626" viewBox="0 0 3176.3988290789193 662.2012043622626">
			<rect fill="#4578ad" width="3176.3988290789193" height="662.2012043622626"/>
			<g transform="scale(8.819941453945958) translate(10, 10)">
				<defs id="SvgjsDefs5244"></defs><g id="SvgjsG5245" featureKey="nameLeftFeature-0" transform="matrix(2.3778064803852743,0,0,2.3778064803852743,-2.356670395695995,-1.6036913610925563)" fill="#fae398"><path d="M1.02 15.9 l-0.02 0 c0 0.5 -0.02 1.02 0 1.54 c0.02 0.64 0.04 1.28 0.08 1.92 c0.02 0.22 0.06 0.28 0.28 0.32 c0.4 0.1 0.82 0.12 1.24 0.12 c1.08 -0.04 1.08 -0.22 1.08 -0.96 c-0.04 -0.38 -0.02 -0.54 -0.02 -1 c0 -0.66 -0.02 -0.74 -0.02 -1.68 c0.02 -0.76 0.02 -1.74 0.02 -2.52 c0 -0.42 0.06 -0.56 0.44 -0.56 l2.92 0 c0.42 0.06 0.26 -0.22 0.26 -0.64 s0.06 -0.44 0.04 -0.86 c0 -0.2 -0.04 -0.4 -0.06 -0.6 c-0.04 -0.34 -0.16 -0.46 -0.5 -0.46 c-0.22 0 -0.02 0.02 -0.22 0.04 c-0.86 0.06 -1.68 -0.06 -2.54 0 c-0.28 0 -0.32 -0.04 -0.34 -0.3 c-0.06 -0.78 0 -1.64 0.08 -2.42 c0.04 -0.32 0.1 -0.38 0.4 -0.4 l2.82 -0.02 c0.4 -0.04 0.52 -0.02 0.48 -0.4 c-0.04 -0.58 0.04 -1.18 -0.04 -1.76 c-0.04 -0.32 -0.12 -0.38 -0.48 -0.38 c-0.6 0.02 -0.74 0.02 -1.34 0.06 c-0.6 0.02 -3.02 0.02 -3.6 0.02 c-0.82 0 -0.9 -0.06 -0.92 0.96 c-0.02 0.8 -0.02 1.62 -0.02 2.44 c0 1.4 -0.08 6.42 -0.02 7.54 z M11.92 18.5 c0 -0.52 0 -3.8 0.02 -4.06 c0.02 -0.06 0.06 -0.18 0.14 -0.18 s0.12 0.04 0.14 0.1 c0.8 1.56 1.5 3.12 2.22 4.64 c0.1 0.22 0.32 0.86 0.38 0.92 c0.08 0.12 0.22 0.08 0.34 0.08 l2.2 0.02 c0.26 0 0.32 -0.16 0.26 -0.38 c-0.16 -0.6 -1.3 -2.72 -1.56 -3.24 c-0.18 -0.4 -1.38 -2.72 -1.42 -2.9 c-0.04 -0.08 0.26 -0.22 0.3 -0.28 c0.96 -0.86 1.82 -1.74 2 -3.08 c0.2 -1.32 -0.1 -2.76 -0.96 -3.82 c-0.66 -0.78 -1.52 -1.24 -2.54 -1.3 c-0.62 -0.04 -1.22 0.02 -1.84 0 c-0.54 -0.02 -0.92 -0.02 -1.6 -0.02 c-0.32 0 -0.52 0.18 -0.54 0.52 l0 0.24 c-0.04 1.54 0 3.08 0.02 4.6 c0 2.32 -0.04 8.44 -0.04 9.32 c0 0.26 0.04 0.32 0.28 0.32 c0.14 0 0.3 0.02 0.44 0.02 c0.56 0 0.9 -0.02 1.48 -0.02 c0.44 0 0.28 -0.72 0.28 -1.5 z M11.92 10.7 l0.02 -2.02 c0.02 -0.3 -0.08 -0.9 0.2 -1.12 c0.38 -0.28 1.16 0 1.5 0.24 c1 0.68 0.92 2.36 0.38 3.3 c-0.26 0.44 -0.7 0.7 -1.2 0.84 c-0.3 0.08 -0.86 0.18 -0.88 -0.3 c0 -0.32 -0.02 -0.94 -0.02 -0.94 z M19.66 15.9 l-0.02 0 c0 0.5 -0.02 1.02 0 1.54 c0.02 0.64 0.06 1.28 0.1 1.92 c0 0.22 0.06 0.28 0.26 0.32 c0.42 0.1 0.82 0.12 1.24 0.12 c1.08 -0.04 2.16 0.04 3.24 0 c0.44 -0.02 0.64 0.02 1.08 -0.06 c0.4 -0.08 0.54 -0.3 0.54 -0.9 c-0.04 -0.38 -0.02 -0.54 -0.02 -1 c0 -0.66 -0.46 -0.88 -0.86 -0.86 c-0.28 0.02 -1.62 -0.02 -2.16 -0.02 c-0.9 0.02 -0.76 0.14 -0.76 -0.8 c0 -0.76 0.02 -1.74 0.02 -2.52 c0 -0.42 0.04 -0.56 0.44 -0.56 l2.5 0 c0.4 0.06 0.68 -0.22 0.68 -0.64 s0.04 -0.44 0.04 -0.86 l-0.06 -0.6 c-0.04 -0.34 -0.16 -0.46 -0.5 -0.46 c-0.22 0 -0.44 0.02 -0.66 0.04 c-0.86 0.06 -1.26 -0.06 -2.1 0 c-0.28 0 -0.32 -0.04 -0.34 -0.3 c-0.08 -0.78 0 -1.64 0.08 -2.42 c0.02 -0.32 0.1 -0.38 0.4 -0.4 l2.82 -0.02 c0.38 -0.04 0.5 -0.02 0.48 -0.4 c-0.04 -0.58 0.02 -1.18 -0.04 -1.76 c-0.04 -0.32 -0.14 -0.38 -0.5 -0.38 c-0.6 0.02 -0.74 0.02 -1.34 0.06 c-0.6 0.02 -3 0.02 -3.58 0.02 c-0.84 0 -0.9 -0.06 -0.92 0.96 c-0.04 0.8 -0.02 1.62 -0.02 2.44 c0 1.4 -0.08 6.42 -0.04 7.54 z M28.12 15.9 l-0.02 0 c0 0.5 -0.02 1.02 0 1.54 c0.02 0.64 0.06 1.28 0.1 1.92 c0 0.22 0.06 0.28 0.26 0.32 c0.42 0.1 0.82 0.12 1.24 0.12 c1.08 -0.04 2.16 0.04 3.24 0 c0.44 -0.02 0.64 0.02 1.08 -0.06 c0.4 -0.08 0.54 -0.3 0.54 -0.9 c-0.04 -0.38 -0.02 -0.54 -0.02 -1 c0 -0.66 -0.46 -0.88 -0.86 -0.86 c-0.28 0.02 -1.62 -0.02 -2.16 -0.02 c-0.9 0.02 -0.76 0.14 -0.76 -0.8 c0 -0.76 0.02 -1.74 0.02 -2.52 c0 -0.42 0.04 -0.56 0.44 -0.56 l2.5 0 c0.4 0.06 0.68 -0.22 0.68 -0.64 s0.04 -0.44 0.04 -0.86 l-0.06 -0.6 c-0.04 -0.34 -0.16 -0.46 -0.5 -0.46 c-0.22 0 -0.44 0.02 -0.66 0.04 c-0.86 0.06 -1.26 -0.06 -2.1 0 c-0.28 0 -0.32 -0.04 -0.34 -0.3 c-0.08 -0.78 0 -1.64 0.08 -2.42 c0.02 -0.32 0.1 -0.38 0.4 -0.4 l2.82 -0.02 c0.38 -0.04 0.5 -0.02 0.48 -0.4 c-0.04 -0.58 0.02 -1.18 -0.04 -1.76 c-0.04 -0.32 -0.14 -0.38 -0.5 -0.38 c-0.6 0.02 -0.74 0.02 -1.34 0.06 c-0.6 0.02 -3 0.02 -3.58 0.02 c-0.84 0 -0.9 -0.06 -0.92 0.96 c-0.04 0.8 -0.02 1.62 -0.02 2.44 c0 1.4 -0.08 6.42 -0.04 7.54 z"></path></g><g id="SvgjsG5246" featureKey="inlineSymbolFeature-0" transform="matrix(0.9835714285714287,0,0,0.9835714285714287,90.65607142857142,-3.9342857142857146)" fill="#fae398"><path xmlns="http://www.w3.org/2000/svg" d="M28,10.06v4.78a2.28,2.28,0,0,1-.62,1.71,2.34,2.34,0,0,1-1.69.6,2.5,2.5,0,0,1-1.78-.63,2.35,2.35,0,0,1-.67-1.79h1.7a1.05,1.05,0,0,0,.18.67.63.63,0,0,0,.52.22.57.57,0,0,0,.48-.2.82.82,0,0,0,.17-.58V10.06Z"></path><path xmlns="http://www.w3.org/2000/svg" d="M30.49,16.9a2.18,2.18,0,0,1-1-.74A2,2,0,0,1,29.13,15H31a.94.94,0,0,0,.27.6.92.92,0,0,0,.6.2,1,1,0,0,0,.6-.17.59.59,0,0,0,.22-.49.61.61,0,0,0-.17-.43,1.68,1.68,0,0,0-.43-.28c-.17-.07-.42-.15-.73-.25a8.23,8.23,0,0,1-1.11-.42,2.07,2.07,0,0,1-.74-.62,1.76,1.76,0,0,1-.31-1.07,1.84,1.84,0,0,1,.71-1.53,3.37,3.37,0,0,1,3.72,0,2,2,0,0,1,.76,1.54H32.49a.69.69,0,0,0-.25-.53.88.88,0,0,0-.59-.2.76.76,0,0,0-.5.17A.62.62,0,0,0,31,12a.58.58,0,0,0,.32.53,4.89,4.89,0,0,0,1,.41,10.68,10.68,0,0,1,1.11.44,2.13,2.13,0,0,1,.73.61,1.62,1.62,0,0,1,.31,1,2,2,0,0,1-.3,1.09,2.13,2.13,0,0,1-.89.78,2.92,2.92,0,0,1-1.37.29A3.57,3.57,0,0,1,30.49,16.9Z"></path><path xmlns="http://www.w3.org/2000/svg" d="M37,16.69a3.36,3.36,0,0,1-1.31-1.28,3.76,3.76,0,0,1,0-3.71A3.5,3.5,0,0,1,37,10.42,3.72,3.72,0,0,1,38.8,10a3.76,3.76,0,0,1,1.82.46,3.47,3.47,0,0,1,1.3,1.28,3.71,3.71,0,0,1,.47,1.85,3.63,3.63,0,0,1-.48,1.86,3.33,3.33,0,0,1-1.3,1.28,3.79,3.79,0,0,1-3.62,0ZM40.15,15a2.14,2.14,0,0,0,.5-1.48,2.14,2.14,0,0,0-.5-1.48,1.92,1.92,0,0,0-2.7,0,2.12,2.12,0,0,0-.51,1.49A2.12,2.12,0,0,0,37.45,15a1.92,1.92,0,0,0,2.7,0Z"></path><path xmlns="http://www.w3.org/2000/svg" d="M49.62,17.08H47.91l-2.86-4.33v4.33H43.34v-7h1.71l2.86,4.35V10.06h1.71Z"></path><path xmlns="http://www.w3.org/2000/svg" d="M27.25,42.07h1.29a.52.52,0,0,1,.52.52v1.25a.52.52,0,0,1-.52.52H27.25a.52.52,0,0,1-.52-.52V42.59A.52.52,0,0,1,27.25,42.07Z"></path><path xmlns="http://www.w3.org/2000/svg" d="M31.35,42.07h1.3a.51.51,0,0,1,.51.51v1.27a.51.51,0,0,1-.51.51h-1.3a.51.51,0,0,1-.51-.51V42.58A.51.51,0,0,1,31.35,42.07Z"></path><path xmlns="http://www.w3.org/2000/svg" d="M35.46,42.07h1.3a.51.51,0,0,1,.51.51v1.27a.51.51,0,0,1-.51.51H35.45a.51.51,0,0,1-.51-.51V42.58A.51.51,0,0,1,35.46,42.07Z"></path><path xmlns="http://www.w3.org/2000/svg" d="M22.11,40.34a3.44,3.44,0,0,1,.93.83,2.86,2.86,0,0,1,.47,1.16,10.16,10.16,0,0,1,.13,1.82,12.19,12.19,0,0,0,0,1.22,1.45,1.45,0,0,0,.15.6.51.51,0,0,0,.27.27,3.18,3.18,0,0,0,.55.12.77.77,0,0,1,.52.31,1.1,1.1,0,0,1,.21.7q0,1-1.23,1a2.87,2.87,0,0,1-1.36-.32,2.3,2.3,0,0,1-.93-.9,2.8,2.8,0,0,1-.33-1.34c0-.85,0-1.53-.05-2a6.28,6.28,0,0,0-.08-1,1.87,1.87,0,0,0-.37-.85,2.91,2.91,0,0,0-.64-.53,2.3,2.3,0,0,1-.57-.44,1,1,0,0,1-.17-.63,1,1,0,0,1,.49-.93,4.62,4.62,0,0,0,.86-.64,1.43,1.43,0,0,0,.36-.68,4.08,4.08,0,0,0,.12-.9c0-.33,0-1.11.05-2.36a2.45,2.45,0,0,1,2.62-2.54c.82,0,1.23.34,1.23,1a1.15,1.15,0,0,1-.2.71.74.74,0,0,1-.53.3,1.69,1.69,0,0,0-.68.21.67.67,0,0,0-.25.51,12.79,12.79,0,0,0-.08,1.5,11.7,11.7,0,0,1-.13,1.77,2.78,2.78,0,0,1-.44,1.17A3.05,3.05,0,0,1,22.11,40.34Z"></path><path xmlns="http://www.w3.org/2000/svg" d="M40.93,39.46a2.78,2.78,0,0,1-.44-1.17,11.7,11.7,0,0,1-.13-1.77,12.79,12.79,0,0,0-.08-1.5.67.67,0,0,0-.25-.51,1.69,1.69,0,0,0-.68-.21.74.74,0,0,1-.53-.3,1.15,1.15,0,0,1-.2-.71c0-.66.41-1,1.23-1a2.45,2.45,0,0,1,2.62,2.54c0,1.25,0,2,.05,2.36a4.08,4.08,0,0,0,.12.9,1.43,1.43,0,0,0,.36.68,4.62,4.62,0,0,0,.86.64,1,1,0,0,1,.49.93,1,1,0,0,1-.17.63,2.3,2.3,0,0,1-.57.44,2.91,2.91,0,0,0-.64.53,1.87,1.87,0,0,0-.37.85,6.28,6.28,0,0,0-.08,1c0,.51,0,1.19-.05,2a2.8,2.8,0,0,1-.33,1.34,2.3,2.3,0,0,1-.93.9,2.87,2.87,0,0,1-1.36.32q-1.23,0-1.23-1a1.1,1.1,0,0,1,.21-.7.77.77,0,0,1,.52-.31,3.18,3.18,0,0,0,.55-.12.51.51,0,0,0,.27-.27,1.45,1.45,0,0,0,.15-.6,12.19,12.19,0,0,0,0-1.22,10.16,10.16,0,0,1,.13-1.82A2.86,2.86,0,0,1,41,41.17a3.44,3.44,0,0,1,.93-.83A3.05,3.05,0,0,1,40.93,39.46Z"></path><path xmlns="http://www.w3.org/2000/svg" d="M49.5,4H21.09L9.5,15.59V55a5,5,0,0,0,5,5h35a5,5,0,0,0,5-5V9A5,5,0,0,0,49.5,4Zm-29,3.41v5.26C20.5,14,19,15,17.75,15H12.91ZM17.75,17c2.25,0,4.75-1.78,4.75-4.33V6h27a3,3,0,0,1,3,3V21h-41V17ZM49.5,58h-35a3,3,0,0,1-3-3V23h41V55A3,3,0,0,1,49.5,58Z"></path></g><g id="SvgjsG5247" featureKey="nameRightFeature-0" transform="matrix(2.365405102189862,0,0,2.365405102189862,149.8081626691235,-1.5431726577334697)" fill="#fae398"><path d="M10.08 4.9 c-0.38 0.02 -0.76 0.08 -1.14 0.2 c-0.82 0.28 -1.56 0.84 -2.06 1.56 c-0.44 0.66 -0.62 1.44 -0.68 2.22 c-0.04 0.6 0.02 1.22 0.3 1.76 c0.3 0.58 0.82 1.08 1.26 1.56 c0.4 0.42 0.8 0.84 1.24 1.22 c0.4 0.38 0.86 0.68 1.26 1.08 c0.58 0.58 0.8 1.9 0.38 2.62 c-0.5 0.8 -1.68 0.92 -2.46 0.66 c-0.4 -0.14 -0.76 -0.44 -1.1 -0.68 c-0.2 -0.14 -0.44 -0.2 -0.58 0.04 c-0.08 0.12 -0.12 0.26 -0.16 0.38 c-0.14 0.5 -0.32 0.96 -0.34 1.5 c-0.02 0.62 1.16 0.8 1.6 0.9 c1.96 0.46 4.32 0.1 5.34 -1.84 c0.2 -0.4 0.34 -0.82 0.42 -1.26 c0.02 -0.16 0.04 -0.3 0.04 -0.46 c0.08 -1.28 -0.44 -2.36 -1.22 -3.32 c-0.84 -1.04 -1.9 -1.76 -2.88 -2.66 c-0.6 -0.56 -0.82 -1.44 -0.64 -2.24 c0.18 -0.86 1.16 -1.08 1.9 -0.86 c0.22 0.06 0.4 0.16 0.6 0.28 c0.12 0.06 0.24 0.14 0.4 0.14 c0.28 0.02 0.32 -0.2 0.38 -0.42 c0.14 -0.5 0.38 -0.9 0.48 -1.38 c0.1 -0.54 -0.34 -0.64 -0.78 -0.78 c-0.52 -0.14 -1.02 -0.24 -1.56 -0.22 z M21.4 14.08 c0 0.9 -0.02 2.68 -0.04 2.68 l0 2.72 c0 0.12 -0.02 0.32 0.04 0.44 c0.06 0.14 0.24 0.1 0.36 0.08 c0.58 -0.06 1.16 0.02 1.74 0 c0.64 -0.02 0.44 -1 0.42 -1.4 c-0.08 -0.88 0.02 -7.58 0.02 -9.98 c0 -1.08 -0.04 -3.3 -0.1 -3.4 c-0.1 -0.18 -0.36 -0.22 -0.56 -0.24 c-0.44 -0.08 -0.66 0.04 -1.32 0.04 s-0.7 0.2 -0.7 0.9 l0 0.6 c-0.02 0.48 0.06 3.84 0.06 4.38 c0 0.26 -0.02 0.28 -0.28 0.28 c-0.66 -0.02 -1.58 0.06 -2.26 0 c-0.98 -0.08 -0.76 0 -0.82 -0.9 l0 -0.12 c0 -1.28 0.16 -4.6 0.1 -4.8 c-0.1 -0.3 -0.22 -0.36 -0.48 -0.34 c-0.6 0.04 -1.22 -0.06 -1.82 -0.02 c-0.2 0.02 -0.26 0.08 -0.32 0.28 c-0.02 0.1 -0.04 0.2 -0.04 0.3 c0 0.62 0.04 1.46 0.06 2.08 l-0.06 11.86 c0 0.52 0.46 0.46 1.48 0.46 c0.94 0 1.18 0.22 1.18 -0.9 c0 -0.9 -0.06 -2.04 -0.04 -2.94 c0.02 -0.7 0 -1.38 0 -2.08 c0.02 -0.26 0.08 -0.34 0.32 -0.34 c0.88 -0.02 1.84 0 2.72 0 c0.28 0 0.34 0.04 0.34 0.36 z M25.98 15.9 l-0.02 0 c0 0.5 -0.02 1.02 0 1.54 c0.02 0.64 0.06 1.28 0.1 1.92 c0 0.22 0.06 0.28 0.26 0.32 c0.42 0.1 0.82 0.12 1.24 0.12 c1.08 -0.04 2.16 0.04 3.24 0 c0.44 -0.02 0.64 0.02 1.08 -0.06 c0.4 -0.08 0.54 -0.3 0.54 -0.9 c-0.04 -0.38 -0.02 -0.54 -0.02 -1 c0 -0.66 -0.46 -0.88 -0.86 -0.86 c-0.28 0.02 -1.62 -0.02 -2.16 -0.02 c-0.9 0.02 -0.76 0.14 -0.76 -0.8 c0 -0.76 0.02 -1.74 0.02 -2.52 c0 -0.42 0.04 -0.56 0.44 -0.56 l2.5 0 c0.4 0.06 0.68 -0.22 0.68 -0.64 s0.04 -0.44 0.04 -0.86 l-0.06 -0.6 c-0.04 -0.34 -0.16 -0.46 -0.5 -0.46 c-0.22 0 -0.44 0.02 -0.66 0.04 c-0.86 0.06 -1.26 -0.06 -2.1 0 c-0.28 0 -0.32 -0.04 -0.34 -0.3 c-0.08 -0.78 0 -1.64 0.08 -2.42 c0.02 -0.32 0.1 -0.38 0.4 -0.4 l2.82 -0.02 c0.38 -0.04 0.5 -0.02 0.48 -0.4 c-0.04 -0.58 0.02 -1.18 -0.04 -1.76 c-0.04 -0.32 -0.14 -0.38 -0.5 -0.38 c-0.6 0.02 -0.74 0.02 -1.34 0.06 c-0.6 0.02 -3 0.02 -3.58 0.02 c-0.84 0 -0.9 -0.06 -0.92 0.96 c-0.04 0.8 -0.02 1.62 -0.02 2.44 c0 1.4 -0.08 6.42 -0.04 7.54 z M34.440000000000005 15.9 l-0.02 0 c0 0.5 -0.02 1.02 0 1.54 c0.02 0.64 0.06 1.28 0.1 1.92 c0 0.22 0.06 0.28 0.26 0.32 c0.42 0.1 0.82 0.12 1.24 0.12 c1.08 -0.04 2.16 0.04 3.24 0 c0.44 -0.02 0.64 0.02 1.08 -0.06 c0.4 -0.08 0.54 -0.3 0.54 -0.9 c-0.04 -0.38 -0.02 -0.54 -0.02 -1 c0 -0.66 -0.46 -0.88 -0.86 -0.86 c-0.28 0.02 -1.62 -0.02 -2.16 -0.02 c-0.9 0.02 -0.76 0.14 -0.76 -0.8 c0 -0.76 0.02 -1.74 0.02 -2.52 c0 -0.42 0.04 -0.56 0.44 -0.56 l2.5 0 c0.4 0.06 0.68 -0.22 0.68 -0.64 s0.04 -0.44 0.04 -0.86 l-0.06 -0.6 c-0.04 -0.34 -0.16 -0.46 -0.5 -0.46 c-0.22 0 -0.44 0.02 -0.66 0.04 c-0.86 0.06 -1.26 -0.06 -2.1 0 c-0.28 0 -0.32 -0.04 -0.34 -0.3 c-0.08 -0.78 0 -1.64 0.08 -2.42 c0.02 -0.32 0.1 -0.38 0.4 -0.4 l2.82 -0.02 c0.38 -0.04 0.5 -0.02 0.48 -0.4 c-0.04 -0.58 0.02 -1.18 -0.04 -1.76 c-0.04 -0.32 -0.14 -0.38 -0.5 -0.38 c-0.6 0.02 -0.74 0.02 -1.34 0.06 c-0.6 0.02 -3 0.02 -3.58 0.02 c-0.84 0 -0.9 -0.06 -0.92 0.96 c-0.04 0.8 -0.02 1.62 -0.02 2.44 c0 1.4 -0.08 6.42 -0.04 7.54 z M45.42 17.82 c0.02 0.62 0.02 1.24 0.04 1.86 c0 0.28 0.02 0.32 0.3 0.32 l1.8 0 c0.38 0 0.3 -0.64 0.28 -0.98 l0.06 -11.2 c0 -0.3 0.1 -0.4 0.5 -0.4 l1.76 0 c0.42 0 0.32 -0.72 0.32 -1.22 c0 -0.44 0.16 -1.2 -0.32 -1.2 c-0.34 0 -3.6 0 -4.94 0.02 c-0.66 0 -1.2 -0.02 -1.86 -0.02 c-0.5 0 -0.48 0.4 -0.48 1.28 c0 0.56 -0.02 1.12 0.46 1.12 c0.28 0 1.42 0 1.74 0.02 c0.2 0 0.34 0.06 0.38 0.28 c0 0.06 0.02 0.12 0.02 0.18 c0 1.44 -0.1 8.14 -0.06 9.94 z M59.34 19.84 c0.06 0.02 0.24 0.02 0.42 0.02 c0.4 0 0.52 -1.44 0.56 -1.74 c0.02 -0.24 0.08 -0.26 0.28 -0.3 c1 -0.12 1.5 -0.04 2.5 -0.02 c0.22 0 0.34 0.1 0.4 0.28 l0.14 0.46 c0.12 0.34 0.22 0.76 0.34 1.1 c0.08 0.24 0.1 0.22 0.34 0.22 c0.32 0 1.48 0 1.82 -0.02 c0.46 0 0.14 -0.94 0.08 -1.1 c-0.18 -0.56 -0.22 -1.14 -0.4 -1.7 c-0.08 -0.24 -2.36 -11.06 -2.46 -11.66 c-0.14 -0.36 -0.02 -0.38 -0.34 -0.38 c-0.68 0 -1.4 0.04 -2.1 0 c-0.28 0 -0.26 0.08 -0.3 0.38 c-0.04 0.28 -0.76 3.46 -1.04 4.78 c-0.36 1.66 -0.68 3.26 -1.08 4.9 c-0.14 0.58 -1.1 4.76 -0.98 4.78 c0.06 0.04 0.16 0.02 0.24 0.02 c0.5 0 0.96 0 1.58 -0.02 z M61.96 15.3 l-0.42 0 c-0.56 0 -0.58 0 -0.44 -0.58 c0.1 -0.44 0.64 -2.82 0.76 -3.4 c0.02 -0.04 0.06 -0.08 0.08 -0.08 c0.04 0 0.08 0.04 0.1 0.06 c0.08 0.24 0.16 0.84 0.24 1.08 c0.18 0.76 0.3 1.4 0.48 2.22 c0.18 0.72 0.1 0.72 -0.26 0.72 c-0.18 0 -0.36 -0.02 -0.54 -0.02 z M68.39999999999999 7.619999999999999 c0.02 1.18 0.02 11.2 0.02 12.02 c0 0.3 0.04 0.36 0.34 0.36 c0.68 0 0.68 0.02 1.36 0 c0.14 0 0.38 0 0.5 -0.06 c0.14 -0.06 0.06 -4.78 0.06 -5.04 c0 -0.28 0.56 -0.22 0.72 -0.22 c3.34 0 4.26 -2.4 4.26 -4.44 c0 -1.84 -0.36 -5.24 -4.52 -5.24 c-0.72 0 -1.46 0.02 -2.16 0.02 c-0.16 0 -0.36 -0.02 -0.5 0.08 c-0.16 0.12 -0.1 1.9 -0.08 2.52 z M70.69999999999999 11.74 c0 -0.44 -0.02 -3.06 0 -3.86 c0 -0.12 -0.02 -0.26 0 -0.4 c0.06 -0.22 0.32 -0.22 0.52 -0.2 c1.16 0.08 1.82 1.1 1.92 2.18 c0.08 0.78 -0.02 1.94 -0.58 2.56 c-0.4 0.42 -0.92 0.68 -1.6 0.68 c-0.14 0 -0.28 -0.16 -0.28 -0.3 c0 -0.22 0 -0.44 0.02 -0.66 z M80.42 14.84 c-0.06 -2.28 -0.04 -4.7 -0.02 -6.96 c0 -0.7 -0.04 -1.46 -0.04 -2.16 c0 -0.76 -0.3 -0.72 -0.7 -0.74 c-0.58 -0.02 -0.84 -0.02 -1.42 -0.02 c-0.38 -0.02 -0.54 0.08 -0.54 0.46 c0 1.96 -0.06 7.5 -0.04 8.3 s0.1 4.44 0.06 5.24 c-0.02 0.28 0 0.56 0.02 0.84 c0.02 0.1 0.08 0.2 0.24 0.2 c0.66 -0.04 1.28 -0.04 1.94 -0.06 c0.24 -0.02 0.44 -0.08 0.54 -0.34 c0.02 -0.14 -0.04 -3.8 -0.04 -4.76 z"></path></g>
			</g>
		</svg>
	